{"title":"Awolnation - Woman Woman (2016 Rock)","uid":14073629,"size":65640286,"categoryP":"video","categoryS":"music_videos","magnet":"?xt=urn:btih:4b116b1c33212e07707afa39f8145b7cbb7add7a&amp;dn=Awolnation+-+Woman+Woman+%282016+Rock%29&amp;tr=udp%3A%2F%2Ftracker.leechers-paradise.org%3A6969&amp;tr=udp%3A%2F%2Fzer0day.ch%3A1337&amp;tr=udp%3A%2F%2Fopen.demonii.com%3A1337&amp;tr=udp%3A%2F%2Ftracker.coppersurfer.tk%3A6969&amp;tr=udp%3A%2F%2Fexodus.desync.com%3A6969","seeders":5,"leechers":0,"uploader":"MeRaDil","files":1,"time":1459194043,"description":"http://gifyu.com/images/awalnation.png\r\n\r\n                                    MEDIA INFO\r\nAwolnation - Woman Woman\r\nFormat                                   : MPEG-4\r\nFormat profile                           : Base Media\r\nCodec ID                                 : isom (isom/iso2/avc1/mp41)\r\nFile size                                : 62.6 MiB\r\nDuration                                 : 3mn 36s\r\nOverall bit rate                         : 2 425 Kbps\r\nMusicVid name                            : Woman Woman\r\nAlbum                                    : Run\r\nPerformer                                : Awolnation\r\nPublisher                                : MeRaDil\r\nGenre                                    : Electronic Rock\r\nContentType                              : Music Video\r\nRecorded date                            : 2016\r\nWriting application                      : Lavf54.29.104/MeRaDil\r\nRelease date                             : USA - february 22 - 2016\r\n \nhttp://gifyu.com/images/awolnation3.png\r\n\r\nVideo\r\nID                                       : 1\r\nFormat                                   : AVC\r\nFormat/Info                              : Advanced Video Codec\r\nFormat profile                           :   \r\nFormat settings, CABAC                   : Yes\r\nFormat settings, ReFrames                : 3 frames\r\nCodec ID                                 : avc1\r\nCodec ID/Info                            : Advanced Video Coding\r\nDuration                                 : 3mn 36s\r\nBit rate                                 : 2 154 Kbps\r\nWidth                                    : 1 920 pixels\r\nHeight                                   : 1 080 pixels\r\nDisplay aspect ratio                     : 16:9\r\nFrame rate mode                          : Variable\r\nFrame rate                               : 23.976 (24000/1001) fps\r\nMinimum frame rate                       : 23.974 fps\r\nMaximum frame rate                       : 23.981 fps\r\nColor space                              : YUV\r\nChroma subsampling                       : 4:2:0\r\nBit depth                                : 8 bits\r\nScan type                                : Progressive\r\nBits/(Pixel*Frame)                       : 0.043\r\nStream size                              : 55.6 MiB (89%)\r\nColor range                              : Limited\r\n\r\nAudio\r\nID                                       : 2\r\nFormat                                   : AAC\r\nFormat/Info                              : Advanced Audio Codec\r\nFormat profile                           : LC\r\nCodec ID                                 : 40\r\nDuration                                 : 3mn 36s\r\nBit rate mode                            : Constant\r\nBit rate                                 : 256 Kbps\r\nChannel(s)                               : 2 channels\r\nChannel positions                        : Front: L R\r\nSampling rate                            : 44.1 KHz\r\nFrame rate                               : 43.066 fps (1024 spf)\r\nCompression mode                         : Lossy\r\nStream size                              : 6.61 MiB (11%)\r\nDefault                                  : Yes\r\nAlternate group                          : 1\r\n \nhttp://gifyu.com/images/awolnation1.png\r\n \nhttp://gifyu.com/images/awolnation2.png","torrent":{"xt":"urn:btih:4b116b1c33212e07707afa39f8145b7cbb7add7a","amp;dn":"Awolnation+-+Woman+Woman+%282016+Rock%29","amp;tr":["udp%3A%2F%2Ftracker.leechers-paradise.org%3A6969","udp%3A%2F%2Fzer0day.ch%3A1337","udp%3A%2F%2Fopen.demonii.com%3A1337","udp%3A%2F%2Ftracker.coppersurfer.tk%3A6969","udp%3A%2F%2Fexodus.desync.com%3A6969"],"infoHash":"4b116b1c33212e07707afa39f8145b7cbb7add7a","infoHashBuffer":{"type":"Buffer","data":[75,17,107,28,51,33,46,7,112,122,250,57,248,20,91,124,187,122,221,122]},"announce":[],"urlList":[]}}